<svg xmlns="http://www.w3.org/2000/svg" width="18" height="20" viewBox="0 0 18 20" fill="none"><path d="M14.0366 4.60751C13.1216 3.41917 12.1758 2.19084 11.5066 0.861673C11.2241 0.299173 10.6625 -0.0399938 10.0466 -0.00666045C9.45248 0.0275062 8.95165 0.406673 8.73915 0.983339C8.45415 1.76084 8.16665 3.18167 8.16665 4.60417C8.16665 6.44501 8.73998 7.68834 9.19998 8.68834C9.59082 9.53584 9.89915 10.205 9.82165 11.0608C9.74665 11.8767 9.03331 12.5067 8.13248 12.5C5.97831 12.4758 5.42998 9.74751 5.35081 7.46417C5.32415 6.71667 4.81998 6.08501 4.09665 5.89334C3.37331 5.70251 2.62165 6.00334 2.22915 6.64001C1.22248 8.27417 0.66748 10.0592 0.66748 11.6658C0.66748 16.2608 4.43665 19.9992 9.00582 19.9992C13.5983 19.9717 17.3341 16.2325 17.3341 11.68C17.3808 8.95001 15.6808 6.74251 14.0366 4.60751ZM8.99498 18.3333C5.34498 18.3333 2.33331 15.3425 2.33331 11.6667C2.33331 10.3833 2.81248 8.87001 3.68498 7.52251C3.83415 11.7758 5.40665 14.1358 8.11415 14.1667H8.15331C9.87082 14.1667 11.3291 12.8767 11.4816 11.2133C11.6 9.91334 11.15 8.93667 10.7141 7.99167C10.2808 7.05167 9.83331 6.08001 9.83331 4.60501C9.83331 3.64417 9.99665 2.61834 10.1858 1.93334C10.905 3.27167 11.825 4.46667 12.7166 5.62584C14.2525 7.62167 15.7033 9.50584 15.6675 11.6675C15.6675 15.3217 12.675 18.3125 8.99581 18.3342L8.99498 18.3333Z" fill="currentColor"></path></svg>