<svg xmlns="http://www.w3.org/2000/svg" width="18" height="18" viewBox="0 0 18 18" fill="none"><g clip-path="url(#clip0_1_7602)"><path d="M14.068 6.036C14.2127 6.18375 14.2112 6.4215 14.0635 6.567L10.0697 10.5C9.55523 11.0033 8.89373 11.2552 8.23223 11.2552C7.57748 11.2552 6.92198 11.0085 6.40973 10.5142L4.68773 8.81625C4.54073 8.67075 4.53923 8.43375 4.68398 8.286C4.83098 8.13825 5.06798 8.13675 5.21498 8.28225L6.93398 9.97725C7.66448 10.683 8.81273 10.68 9.54398 9.96375L13.537 6.0315C13.6832 5.88675 13.9217 5.88825 14.0672 6.03525L14.068 6.036ZM18.001 9C18.001 13.9628 13.9637 18 9.00098 18C4.03823 18 0.000976562 13.9628 0.000976562 9C0.000976562 4.03725 4.03823 0 9.00098 0C13.9637 0 18.001 4.03725 18.001 9ZM17.251 9C17.251 4.45125 13.5497 0.75 9.00098 0.75C4.45223 0.75 0.750977 4.45125 0.750977 9C0.750977 13.5487 4.45223 17.25 9.00098 17.25C13.5497 17.25 17.251 13.5487 17.251 9Z" fill="currentColor"></path></g><defs><clipPath id="clip0_1_7602"><rect width="18" height="18" fill="currentColor" transform="translate(0.000976562)"></rect></clipPath></defs></svg>