<svg xmlns="http://www.w3.org/2000/svg" width="72" height="72" viewBox="0 0 72 72" fill="none"><path d="M36.0002 51.7499C29.6535 51.8311 23.3658 50.525 17.5764 47.9231C11.7871 45.3212 6.63594 41.4861 2.48306 36.6861C2.33163 36.4894 2.24951 36.2482 2.24951 35.9999C2.24951 35.7516 2.33163 35.5104 2.48306 35.3136C6.63594 30.5136 11.7871 26.6786 17.5764 24.0767C23.3658 21.4748 29.6535 20.1687 36.0002 20.2499C42.3468 20.1687 48.6346 21.4748 54.4239 24.0767C60.2133 26.6786 65.3644 30.5136 69.5173 35.3136C69.6687 35.5104 69.7509 35.7516 69.7509 35.9999C69.7509 36.2482 69.6687 36.4894 69.5173 36.6861C65.3644 41.4861 60.2133 45.3212 54.4239 47.9231C48.6346 50.525 42.3468 51.8311 36.0002 51.7499ZM4.85118 35.9999C8.83299 40.2747 13.6553 43.6805 19.0155 46.0037C24.3757 48.3268 30.1582 49.5171 36.0002 49.4999C41.8431 49.5235 47.6276 48.3362 52.9888 46.0126C58.3499 43.6891 63.1714 40.2799 67.1492 35.9999C63.1566 31.7388 58.3322 28.3422 52.9745 26.0202C47.6167 23.6981 41.8395 22.5 36.0002 22.5C30.1609 22.5 24.3837 23.6981 19.0259 26.0202C13.6681 28.3422 8.84375 31.7388 4.85118 35.9999Z" fill="currentColor"></path><path d="M36 51.75C32.885 51.75 29.8398 50.8263 27.2498 49.0957C24.6597 47.365 22.641 44.9052 21.4489 42.0273C20.2568 39.1493 19.9449 35.9825 20.5526 32.9273C21.1604 29.8721 22.6604 27.0658 24.8631 24.8631C27.0658 22.6604 29.8721 21.1604 32.9273 20.5526C35.9825 19.9449 39.1493 20.2568 42.0273 21.4489C44.9052 22.641 47.365 24.6597 49.0957 27.2498C50.8263 29.8398 51.75 32.885 51.75 36C51.7455 40.1758 50.0847 44.1793 47.132 47.132C44.1793 50.0847 40.1758 51.7455 36 51.75ZM36 22.5C33.33 22.5 30.7199 23.2918 28.4998 24.7752C26.2797 26.2586 24.5494 28.367 23.5276 30.8338C22.5059 33.3006 22.2385 36.015 22.7594 38.6337C23.2803 41.2525 24.5661 43.6579 26.4541 45.5459C28.3421 47.434 30.7475 48.7197 33.3663 49.2406C35.985 49.7615 38.6994 49.4942 41.1662 48.4724C43.633 47.4506 45.7414 45.7203 47.2248 43.5002C48.7082 41.2801 49.5 38.6701 49.5 36C49.4961 32.4208 48.0726 28.9892 45.5417 26.4583C43.0108 23.9274 39.5792 22.5039 36 22.5Z" fill="currentColor"></path><path d="M36 12.375C35.7016 12.375 35.4155 12.2565 35.2045 12.0455C34.9935 11.8345 34.875 11.5484 34.875 11.25V6.75C34.875 6.45163 34.9935 6.16548 35.2045 5.95451C35.4155 5.74353 35.7016 5.625 36 5.625C36.2984 5.625 36.5845 5.74353 36.7955 5.95451C37.0065 6.16548 37.125 6.45163 37.125 6.75V11.25C37.125 11.5484 37.0065 11.8345 36.7955 12.0455C36.5845 12.2565 36.2984 12.375 36 12.375Z" fill="currentColor"></path><path d="M23.6248 15.6903C23.4272 15.6905 23.2329 15.6386 23.0617 15.5399C22.8905 15.4411 22.7483 15.299 22.6495 15.1278L20.3995 11.2308C20.2526 10.9726 20.2139 10.6667 20.2917 10.38C20.3696 10.0933 20.5577 9.84908 20.8149 9.70054C21.0722 9.552 21.3778 9.51124 21.665 9.58718C21.9522 9.66311 22.1977 9.84956 22.348 10.1058L24.598 14.0028C24.6967 14.1738 24.7486 14.3677 24.7487 14.5651C24.7487 14.7624 24.6969 14.9564 24.5983 15.1273C24.4997 15.2983 24.3578 15.4404 24.1869 15.5392C24.0161 15.638 23.8222 15.6901 23.6248 15.6903Z" fill="currentColor"></path><path d="M21.3748 62.4567C21.1774 62.4565 20.9836 62.4044 20.8127 62.3055C20.6419 62.2067 20.5 62.0647 20.4014 61.8937C20.3028 61.7227 20.2509 61.5288 20.251 61.3314C20.251 61.134 20.303 60.9401 20.4017 60.7692L22.6517 56.8722C22.8019 56.6159 23.0475 56.4295 23.3347 56.3535C23.6219 56.2776 23.9275 56.3184 24.1847 56.4669C24.442 56.6154 24.6301 56.8597 24.7079 57.1464C24.7858 57.4331 24.747 57.739 24.6002 57.9972L22.3502 61.8942C22.2514 62.0654 22.1092 62.2075 21.9379 62.3063C21.7667 62.405 21.5725 62.4569 21.3748 62.4567Z" fill="currentColor"></path><path d="M36 66.375C35.7016 66.375 35.4155 66.2565 35.2045 66.0455C34.9935 65.8345 34.875 65.5484 34.875 65.25V60.75C34.875 60.4516 34.9935 60.1655 35.2045 59.9545C35.4155 59.7435 35.7016 59.625 36 59.625C36.2984 59.625 36.5845 59.7435 36.7955 59.9545C37.0065 60.1655 37.125 60.4516 37.125 60.75V65.25C37.125 65.5484 37.0065 65.8345 36.7955 66.0455C36.5845 66.2565 36.2984 66.375 36 66.375Z" fill="currentColor"></path><path d="M50.625 62.4567C50.4273 62.4569 50.2331 62.405 50.0619 62.3062C49.8906 62.2075 49.7484 62.0654 49.6496 61.8942L47.3996 57.9972C47.3246 57.8692 47.2756 57.7276 47.2555 57.5806C47.2354 57.4336 47.2446 57.2841 47.2825 57.1407C47.3204 56.9972 47.3863 56.8627 47.4765 56.7449C47.5666 56.627 47.6791 56.5281 47.8076 56.454C47.9361 56.3798 48.078 56.3317 48.2251 56.3126C48.3722 56.2935 48.5217 56.3037 48.6649 56.3425C48.8081 56.3814 48.9421 56.4482 49.0594 56.5391C49.1767 56.63 49.2748 56.7432 49.3481 56.8722L51.5981 60.7692C51.6968 60.9401 51.7488 61.134 51.7488 61.3314C51.7489 61.5288 51.697 61.7227 51.5984 61.8937C51.4998 62.0647 51.3579 62.2067 51.1871 62.3055C51.0162 62.4044 50.8224 62.4565 50.625 62.4567Z" fill="currentColor"></path><path d="M48.3748 15.6903C48.1774 15.6901 47.9836 15.638 47.8127 15.5392C47.6419 15.4404 47.5 15.2983 47.4014 15.1273C47.3028 14.9564 47.2509 14.7624 47.251 14.5651C47.251 14.3677 47.303 14.1738 47.4017 14.0028L49.6517 10.1058C49.8019 9.84956 50.0475 9.66311 50.3347 9.58718C50.6219 9.51124 50.9275 9.552 51.1847 9.70054C51.442 9.84908 51.6301 10.0933 51.7079 10.38C51.7858 10.6667 51.747 10.9726 51.6002 11.2308L49.3502 15.1278C49.2514 15.299 49.1092 15.4411 48.9379 15.5399C48.7667 15.6386 48.5725 15.6905 48.3748 15.6903Z" fill="currentColor"></path><path d="M38.2498 38.2501C38.0273 38.25 37.8098 38.184 37.6249 38.0604C37.4399 37.9368 37.2958 37.7611 37.2106 37.5556C37.1255 37.35 37.1032 37.1239 37.1466 36.9057C37.19 36.6875 37.2971 36.487 37.4544 36.3297L43.0794 30.7047C43.2916 30.4998 43.5757 30.3864 43.8707 30.389C44.1657 30.3915 44.4478 30.5098 44.6564 30.7184C44.865 30.927 44.9833 31.2092 44.9859 31.5041C44.9885 31.7991 44.8751 32.0833 44.6701 32.2955L39.0451 37.9205C38.8342 38.1315 38.5481 38.25 38.2498 38.2501Z" fill="currentColor"></path><path d="M38.2498 38.2501C37.9515 38.25 37.6654 38.1315 37.4545 37.9205L34.0795 34.5455C33.8745 34.3333 33.7612 34.0491 33.7637 33.7541C33.7663 33.4592 33.8846 33.177 34.0932 32.9684C34.3018 32.7598 34.5839 32.6415 34.8789 32.639C35.1739 32.6364 35.458 32.7498 35.6702 32.9547L39.0452 36.3297C39.2025 36.487 39.3096 36.6875 39.353 36.9057C39.3964 37.1239 39.3741 37.35 39.289 37.5556C39.2039 37.7611 39.0597 37.9368 38.8747 38.0604C38.6898 38.184 38.4723 38.25 38.2498 38.2501Z" fill="currentColor"></path><path d="M28.1248 41.6251C27.9023 41.625 27.6848 41.559 27.4999 41.4354C27.3149 41.3118 27.1708 41.1361 27.0856 40.9306C27.0005 40.725 26.9782 40.4989 27.0216 40.2807C27.065 40.0625 27.1721 39.8621 27.3294 39.7047L34.0794 32.9547C34.2916 32.7498 34.5757 32.6364 34.8707 32.639C35.1657 32.6415 35.4478 32.7598 35.6564 32.9684C35.865 33.177 35.9833 33.4592 35.9859 33.7541C35.9885 34.0491 35.8751 34.3333 35.6701 34.5455L28.9201 41.2955C28.7092 41.5065 28.4231 41.625 28.1248 41.6251Z" fill="currentColor"></path><path d="M43.875 36C43.5766 36 43.2905 35.8815 43.0795 35.6705C42.8685 35.4595 42.75 35.1734 42.75 34.875V31.5C42.75 31.2016 42.8685 30.9155 43.0795 30.7045C43.2905 30.4935 43.5766 30.375 43.875 30.375C44.1734 30.375 44.4595 30.4935 44.6705 30.7045C44.8815 30.9155 45 31.2016 45 31.5V34.875C45 35.1734 44.8815 35.4595 44.6705 35.6705C44.4595 35.8815 44.1734 36 43.875 36Z" fill="currentColor"></path><path d="M43.875 32.625H40.5C40.2016 32.625 39.9155 32.5065 39.7045 32.2955C39.4935 32.0845 39.375 31.7984 39.375 31.5C39.375 31.2016 39.4935 30.9155 39.7045 30.7045C39.9155 30.4935 40.2016 30.375 40.5 30.375H43.875C44.1734 30.375 44.4595 30.4935 44.6705 30.7045C44.8815 30.9155 45 31.2016 45 31.5C45 31.7984 44.8815 32.0845 44.6705 32.2955C44.4595 32.5065 44.1734 32.625 43.875 32.625Z" fill="currentColor"></path></svg>