<svg xmlns="http://www.w3.org/2000/svg" width="72" height="72" viewBox="0 0 72 72" fill="none"><path d="M52.875 59.625C52.6315 59.6255 52.3945 59.5465 52.2 59.4C38.3828 49.0376 39.3289 24.6094 39.375 23.5744C39.388 23.2849 39.5123 23.0116 39.7219 22.8114C39.9315 22.6113 40.2102 22.4997 40.5 22.5H44.5342L36 13.9658L27.4658 22.5H31.5C31.7898 22.4997 32.0685 22.6113 32.2781 22.8114C32.4877 23.0116 32.612 23.2849 32.625 23.5744C32.6723 24.6094 33.6184 49.0376 19.8 59.4C19.6818 59.4886 19.5473 59.5531 19.4042 59.5898C19.2611 59.6265 19.1122 59.6346 18.9659 59.6137C18.8196 59.5928 18.6789 59.5433 18.5518 59.468C18.4247 59.3928 18.3136 59.2932 18.225 59.175C18.1364 59.0568 18.0719 58.9223 18.0352 58.7792C17.9985 58.6361 17.9904 58.4872 18.0113 58.3409C18.0535 58.0455 18.2113 57.779 18.45 57.6C29.7596 49.1175 30.411 29.547 30.3953 24.75H24.75C24.5275 24.75 24.3101 24.684 24.1251 24.5603C23.9401 24.4367 23.796 24.261 23.7109 24.0555C23.6257 23.85 23.6035 23.6238 23.6468 23.4056C23.6902 23.1874 23.7973 22.987 23.9546 22.8296L35.2046 11.5796C35.4156 11.3687 35.7017 11.2502 36 11.2502C36.2983 11.2502 36.5844 11.3687 36.7954 11.5796L48.0454 22.8296C48.2027 22.987 48.3098 23.1874 48.3532 23.4056C48.3965 23.6238 48.3743 23.85 48.2891 24.0555C48.204 24.261 48.0599 24.4367 47.8749 24.5603C47.6899 24.684 47.4725 24.75 47.25 24.75H41.6059C41.5924 29.5493 42.2527 49.1265 53.55 57.6C53.7389 57.7417 53.8784 57.9392 53.9488 58.1646C54.0192 58.3899 54.0169 58.6318 53.9423 58.8558C53.8676 59.0798 53.7243 59.2746 53.5328 59.4127C53.3412 59.5507 53.1111 59.625 52.875 59.625Z" fill="currentColor"></path><path d="M68.6248 59.625C68.3814 59.6255 68.1444 59.5465 67.9498 59.4C54.1326 49.0376 55.0787 24.6094 55.1248 23.5744C55.1379 23.2849 55.2621 23.0116 55.4717 22.8114C55.6813 22.6113 55.96 22.4997 56.2498 22.5H60.2841L51.7498 13.9658L48.0452 17.6704C47.833 17.8753 47.5489 17.9887 47.2539 17.9861C46.9589 17.9836 46.6768 17.8653 46.4682 17.6567C46.2596 17.4481 46.1413 17.1659 46.1387 16.871C46.1362 16.576 46.2495 16.2918 46.4545 16.0796L50.9545 11.5796C51.1654 11.3687 51.4515 11.2502 51.7498 11.2502C52.0482 11.2502 52.3343 11.3687 52.5452 11.5796L63.7952 22.8296C63.9525 22.987 64.0596 23.1874 64.103 23.4056C64.1464 23.6238 64.1241 23.85 64.039 24.0555C63.9539 24.261 63.8097 24.4367 63.6247 24.5603C63.4398 24.684 63.2223 24.75 62.9998 24.75H57.3557C57.3422 29.5493 58.0026 49.1265 69.2998 57.6C69.4887 57.7417 69.6283 57.9392 69.6987 58.1646C69.7691 58.3899 69.7668 58.6318 69.6921 58.8558C69.6174 59.0798 69.4742 59.2746 69.2826 59.4127C69.0911 59.5507 68.861 59.625 68.6248 59.625Z" fill="currentColor"></path><path d="M3.375 59.625C3.13888 59.625 2.90875 59.5507 2.7172 59.4127C2.52565 59.2746 2.3824 59.0798 2.30773 58.8558C2.23306 58.6318 2.23077 58.3899 2.30117 58.1646C2.37157 57.9392 2.51111 57.7417 2.7 57.6C14.0096 49.1175 14.661 29.547 14.6452 24.75H9C8.77753 24.75 8.56007 24.684 8.37511 24.5603C8.19015 24.4367 8.04599 24.261 7.96086 24.0555C7.87573 23.85 7.85345 23.6238 7.89684 23.4056C7.94023 23.1874 8.04734 22.987 8.20462 22.8296L19.4546 11.5796C19.6656 11.3687 19.9517 11.2502 20.25 11.2502C20.5483 11.2502 20.8344 11.3687 21.0454 11.5796L25.5454 16.0796C25.7503 16.2918 25.8637 16.576 25.8611 16.871C25.8586 17.1659 25.7403 17.4481 25.5317 17.6567C25.3231 17.8653 25.0409 17.9836 24.7459 17.9861C24.451 17.9887 24.1668 17.8753 23.9546 17.6704L20.25 13.9658L11.7157 22.5H15.75C16.0398 22.4997 16.3185 22.6113 16.5281 22.8114C16.7377 23.0116 16.862 23.2849 16.875 23.5744C16.9222 24.6094 17.8684 49.0376 4.05 59.4C3.8555 59.5465 3.6185 59.6255 3.375 59.625Z" fill="currentColor"></path></svg>