<svg xmlns="http://www.w3.org/2000/svg" width="72" height="72" viewBox="0 0 72 72" fill="none"><path d="M36 41.625C34.8875 41.625 33.7999 41.2951 32.8749 40.677C31.9499 40.0589 31.2289 39.1804 30.8032 38.1526C30.3774 37.1248 30.266 35.9938 30.4831 34.9026C30.7001 33.8115 31.2359 32.8092 32.0225 32.0225C32.8092 31.2359 33.8115 30.7001 34.9026 30.4831C35.9938 30.266 37.1248 30.3774 38.1526 30.8032C39.1804 31.2289 40.0589 31.9499 40.677 32.8749C41.2951 33.7999 41.625 34.8875 41.625 36C41.6232 37.4913 41.03 38.921 39.9755 39.9755C38.921 41.03 37.4913 41.6232 36 41.625ZM36 32.625C35.3325 32.625 34.68 32.8229 34.125 33.1938C33.5699 33.5646 33.1374 34.0917 32.8819 34.7084C32.6265 35.3251 32.5596 36.0037 32.6899 36.6584C32.8201 37.3131 33.1415 37.9145 33.6135 38.3865C34.0855 38.8585 34.6869 39.1799 35.3416 39.3102C35.9963 39.4404 36.6749 39.3735 37.2916 39.1181C37.9083 38.8626 38.4354 38.4301 38.8062 37.8751C39.1771 37.32 39.375 36.6675 39.375 36C39.375 35.1049 39.0194 34.2465 38.3865 33.6135C37.7536 32.9806 36.8951 32.625 36 32.625Z" fill="currentColor"></path><path d="M64.125 41.625C63.0125 41.625 61.9249 41.2951 60.9999 40.677C60.0749 40.0589 59.3539 39.1804 58.9282 38.1526C58.5024 37.1248 58.391 35.9938 58.6081 34.9026C58.8251 33.8115 59.3609 32.8092 60.1475 32.0225C60.9342 31.2359 61.9365 30.7001 63.0276 30.4831C64.1188 30.266 65.2498 30.3774 66.2776 30.8032C67.3054 31.2289 68.1839 31.9499 68.802 32.8749C69.4201 33.7999 69.75 34.8875 69.75 36C69.7482 37.4913 69.155 38.921 68.1005 39.9755C67.046 41.03 65.6163 41.6232 64.125 41.625ZM64.125 32.625C63.4575 32.625 62.805 32.8229 62.25 33.1938C61.6949 33.5646 61.2624 34.0917 61.0069 34.7084C60.7515 35.3251 60.6846 36.0037 60.8149 36.6584C60.9451 37.3131 61.2665 37.9145 61.7385 38.3865C62.2105 38.8585 62.8119 39.1799 63.4666 39.3102C64.1213 39.4404 64.7999 39.3735 65.4166 39.1181C66.0333 38.8626 66.5604 38.4301 66.9312 37.8751C67.3021 37.32 67.5 36.6675 67.5 36C67.5 35.1049 67.1444 34.2465 66.5115 33.6135C65.8786 32.9806 65.0201 32.625 64.125 32.625Z" fill="currentColor"></path><path d="M56.25 37.125H43.875C43.5766 37.125 43.2905 37.0065 43.0795 36.7955C42.8685 36.5845 42.75 36.2984 42.75 36C42.75 35.7016 42.8685 35.4155 43.0795 35.2045C43.2905 34.9935 43.5766 34.875 43.875 34.875H56.25C56.5484 34.875 56.8345 34.9935 57.0455 35.2045C57.2565 35.4155 57.375 35.7016 57.375 36C57.375 36.2984 57.2565 36.5845 57.0455 36.7955C56.8345 37.0065 56.5484 37.125 56.25 37.125Z" fill="currentColor"></path><path d="M55.8879 21.7373C54.9628 21.7375 54.0519 21.5095 53.2359 21.0736C52.42 20.6376 51.7242 20.0071 51.2101 19.238C50.696 18.4688 50.3796 17.5847 50.2888 16.6641C50.1981 15.7434 50.3358 14.8146 50.6898 13.9599C51.0438 13.1052 51.6032 12.351 52.3183 11.7641C53.0335 11.1772 53.8823 10.7758 54.7897 10.5953C55.697 10.4149 56.6349 10.461 57.5201 10.7297C58.4054 10.9983 59.2107 11.4812 59.8648 12.1354C60.6512 12.9221 61.1868 13.9243 61.4037 15.0153C61.6206 16.1062 61.5093 17.2371 61.0836 18.2647C60.658 19.2924 59.9372 20.1708 59.0124 20.7889C58.0876 21.407 57.0003 21.7371 55.8879 21.7373ZM55.8879 12.7373C55.2203 12.7372 54.5676 12.9352 54.0125 13.3061C53.4574 13.677 53.0247 14.2042 52.7693 14.8211C52.5139 15.4379 52.4471 16.1166 52.5775 16.7714C52.7079 17.4262 53.0296 18.0276 53.5018 18.4996C54.1447 19.1131 54.9992 19.4555 55.8879 19.4555C56.7766 19.4555 57.6312 19.1131 58.274 18.4996C58.5875 18.1861 58.8362 17.8141 59.0058 17.4046C59.1754 16.995 59.2628 16.5561 59.2628 16.1129C59.2628 15.6696 59.1754 15.2307 59.0058 14.8212C58.8362 14.4117 58.5875 14.0396 58.274 13.7262C57.9615 13.4118 57.5896 13.1625 57.18 12.9927C56.7705 12.823 56.3313 12.7362 55.8879 12.7373Z" fill="currentColor"></path><path d="M41.5686 31.5563C41.3461 31.5563 41.1287 31.4903 40.9437 31.3666C40.7588 31.243 40.6146 31.0673 40.5295 30.8618C40.4443 30.6563 40.4221 30.4301 40.4655 30.2119C40.5088 29.9937 40.6159 29.7933 40.7732 29.6359L49.5235 20.8857C49.6273 20.7782 49.7514 20.6925 49.8887 20.6336C50.0259 20.5746 50.1735 20.5436 50.3229 20.5423C50.4723 20.541 50.6204 20.5694 50.7587 20.626C50.8969 20.6826 51.0225 20.7661 51.1282 20.8717C51.2338 20.9774 51.3173 21.103 51.3739 21.2412C51.4305 21.3795 51.4589 21.5276 51.4576 21.677C51.4563 21.8264 51.4253 21.974 51.3663 22.1113C51.3074 22.2485 51.2217 22.3727 51.1142 22.4764L42.364 31.2267C42.2598 31.3315 42.1359 31.4146 41.9993 31.4712C41.8628 31.5278 41.7164 31.5567 41.5686 31.5563Z" fill="currentColor"></path><path d="M36 13.5C34.8875 13.5 33.7999 13.1701 32.8749 12.552C31.9499 11.9339 31.2289 11.0554 30.8032 10.0276C30.3774 8.99976 30.266 7.86876 30.4831 6.77762C30.7001 5.68648 31.2359 4.6842 32.0225 3.89753C32.8092 3.11086 33.8115 2.57513 34.9026 2.35809C35.9938 2.14104 37.1248 2.25244 38.1526 2.67818C39.1804 3.10392 40.0589 3.82489 40.677 4.74992C41.2951 5.67495 41.625 6.76248 41.625 7.875C41.6232 9.3663 41.03 10.796 39.9755 11.8505C38.921 12.905 37.4913 13.4982 36 13.5ZM36 4.5C35.3325 4.5 34.68 4.69794 34.125 5.06879C33.5699 5.43964 33.1374 5.96675 32.8819 6.58345C32.6265 7.20015 32.5596 7.87875 32.6899 8.53343C32.8201 9.18812 33.1415 9.78949 33.6135 10.2615C34.0855 10.7335 34.6869 11.0549 35.3416 11.1852C35.9963 11.3154 36.6749 11.2485 37.2916 10.9931C37.9083 10.7377 38.4354 10.3051 38.8062 9.75005C39.1771 9.19504 39.375 8.54252 39.375 7.875C39.375 6.9799 39.0194 6.12145 38.3865 5.48852C37.7536 4.85558 36.8951 4.5 36 4.5Z" fill="currentColor"></path><path d="M36 29.25C35.7016 29.25 35.4155 29.1315 35.2045 28.9205C34.9935 28.7095 34.875 28.4234 34.875 28.125V15.75C34.875 15.4516 34.9935 15.1655 35.2045 14.9545C35.4155 14.7435 35.7016 14.625 36 14.625C36.2984 14.625 36.5845 14.7435 36.7955 14.9545C37.0065 15.1655 37.125 15.4516 37.125 15.75V28.125C37.125 28.4234 37.0065 28.7095 36.7955 28.9205C36.5845 29.1315 36.2984 29.25 36 29.25Z" fill="currentColor"></path><path d="M16.1121 21.7373C14.9997 21.7371 13.9124 21.407 12.9876 20.7889C12.0628 20.1708 11.342 19.2924 10.9164 18.2647C10.4908 17.2371 10.3794 16.1062 10.5963 15.0153C10.8132 13.9243 11.3488 12.9221 12.1352 12.1354C12.7893 11.4812 13.5946 10.9983 14.4799 10.7297C15.3651 10.461 16.303 10.4149 17.2103 10.5953C18.1177 10.7758 18.9665 11.1772 19.6817 11.7641C20.3968 12.351 20.9562 13.1052 21.3102 13.9599C21.6642 14.8146 21.8019 15.7434 21.7112 16.6641C21.6204 17.5847 21.304 18.4688 20.7899 19.238C20.2759 20.0071 19.58 20.6376 18.7641 21.0736C17.9481 21.5095 17.0372 21.7375 16.1121 21.7373ZM16.1121 12.7373C15.6686 12.7359 15.2293 12.8224 14.8195 12.992C14.4097 13.1615 14.0376 13.4107 13.7248 13.7251C13.4114 14.0385 13.1627 14.4105 12.9931 14.8201C12.8234 15.2296 12.7361 15.6685 12.7361 16.1117C12.7361 16.555 12.8234 16.9939 12.9931 17.4034C13.1627 17.8129 13.4114 18.185 13.7248 18.4984C14.3677 19.112 15.2223 19.4544 16.111 19.4544C16.9997 19.4544 17.8542 19.112 18.4971 18.4984C18.9693 18.0265 19.291 17.4251 19.4214 16.7703C19.5518 16.1155 19.485 15.4368 19.2296 14.8199C18.9742 14.2031 18.5415 13.6759 17.9864 13.305C17.4313 12.934 16.7786 12.7361 16.111 12.7362L16.1121 12.7373Z" fill="currentColor"></path><path d="M30.4311 31.5563C30.2833 31.5567 30.1369 31.5278 30.0003 31.4712C29.8638 31.4146 29.7399 31.3315 29.6357 31.2267L20.8854 22.4764C20.778 22.3727 20.6923 22.2485 20.6333 22.1113C20.5744 21.974 20.5433 21.8264 20.542 21.677C20.5407 21.5276 20.5692 21.3795 20.6258 21.2412C20.6823 21.103 20.7659 20.9774 20.8715 20.8717C20.9771 20.7661 21.1027 20.6826 21.241 20.626C21.3793 20.5694 21.5274 20.541 21.6768 20.5423C21.8261 20.5436 21.9738 20.5746 22.111 20.6336C22.2483 20.6925 22.3724 20.7782 22.4762 20.8857L31.2264 29.6359C31.3837 29.7933 31.4908 29.9937 31.5342 30.2119C31.5776 30.4301 31.5553 30.6563 31.4702 30.8618C31.3851 31.0673 31.2409 31.243 31.056 31.3666C30.871 31.4903 30.6535 31.5563 30.4311 31.5563Z" fill="currentColor"></path><path d="M7.875 41.625C6.76248 41.625 5.67495 41.2951 4.74992 40.677C3.82489 40.0589 3.10392 39.1804 2.67818 38.1526C2.25244 37.1248 2.14104 35.9938 2.35809 34.9026C2.57513 33.8115 3.11086 32.8092 3.89753 32.0225C4.6842 31.2359 5.68648 30.7001 6.77762 30.4831C7.86876 30.266 8.99976 30.3774 10.0276 30.8032C11.0554 31.2289 11.9339 31.9499 12.552 32.8749C13.1701 33.7999 13.5 34.8875 13.5 36C13.4982 37.4913 12.905 38.921 11.8505 39.9755C10.796 41.03 9.3663 41.6232 7.875 41.625ZM7.875 32.625C7.20749 32.625 6.55497 32.8229 5.99995 33.1938C5.44494 33.5646 5.01236 34.0917 4.75691 34.7084C4.50146 35.3251 4.43463 36.0037 4.56485 36.6584C4.69508 37.3131 5.01652 37.9145 5.48852 38.3865C5.96052 38.8585 6.56189 39.1799 7.21657 39.3102C7.87126 39.4404 8.54986 39.3735 9.16656 39.1181C9.78326 38.8626 10.3104 38.4301 10.6812 37.8751C11.0521 37.32 11.25 36.6675 11.25 36C11.25 35.1049 10.8944 34.2465 10.2615 33.6135C9.62855 32.9806 8.77011 32.625 7.875 32.625Z" fill="currentColor"></path><path d="M28.125 37.125H15.75C15.4516 37.125 15.1655 37.0065 14.9545 36.7955C14.7435 36.5845 14.625 36.2984 14.625 36C14.625 35.7016 14.7435 35.4155 14.9545 35.2045C15.1655 34.9935 15.4516 34.875 15.75 34.875H28.125C28.4234 34.875 28.7095 34.9935 28.9205 35.2045C29.1315 35.4155 29.25 35.7016 29.25 36C29.25 36.2984 29.1315 36.5845 28.9205 36.7955C28.7095 37.0065 28.4234 37.125 28.125 37.125Z" fill="currentColor"></path><path d="M16.1121 61.5127C15.3731 61.5148 14.6411 61.3702 13.9584 61.0873C13.2758 60.8044 12.656 60.3888 12.1352 59.8646C11.2151 58.9442 10.6426 57.7333 10.5153 56.4382C10.3879 55.143 10.7136 53.8438 11.4368 52.7618C12.16 51.6799 13.236 50.8822 14.4814 50.5046C15.7268 50.1271 17.0646 50.193 18.2668 50.6913C19.4691 51.1895 20.4613 52.0892 21.0746 53.237C21.6879 54.3849 21.8841 55.7098 21.63 56.9862C21.3758 58.2625 20.687 59.4112 19.6809 60.2366C18.6747 61.062 17.4135 61.513 16.1121 61.5127ZM16.1121 52.5127C15.4444 52.5124 14.7915 52.7102 14.2362 53.081C13.6809 53.4518 13.2481 53.979 12.9926 54.5959C12.737 55.2128 12.6701 55.8917 12.8005 56.5465C12.9308 57.2014 13.2525 57.8029 13.7248 58.2749C14.3675 58.889 15.2221 59.2317 16.111 59.2317C16.9998 59.2317 17.8545 58.889 18.4971 58.2749C18.9689 57.8029 19.2903 57.2016 19.4204 56.5471C19.5506 55.8925 19.4838 55.214 19.2284 54.5974C18.973 53.9808 18.5405 53.4537 17.9856 53.0828C17.4308 52.712 16.7784 52.514 16.111 52.5138L16.1121 52.5127Z" fill="currentColor"></path><path d="M21.6809 51.4439C21.4584 51.4439 21.241 51.3779 21.056 51.2543C20.8711 51.1307 20.7269 50.955 20.6418 50.7494C20.5566 50.5439 20.5344 50.3177 20.5778 50.0995C20.6211 49.8813 20.7283 49.6809 20.8855 49.5236L29.6358 40.7733C29.848 40.5684 30.1321 40.455 30.4271 40.4576C30.7221 40.4601 31.0042 40.5784 31.2128 40.787C31.4214 40.9956 31.5397 41.2778 31.5423 41.5727C31.5449 41.8677 31.4315 42.1519 31.2265 42.3641L22.4763 51.1143C22.2654 51.3253 21.9793 51.4439 21.6809 51.4439Z" fill="currentColor"></path><path d="M36 69.75C34.8875 69.75 33.7999 69.4201 32.8749 68.802C31.9499 68.1839 31.2289 67.3054 30.8032 66.2776C30.3774 65.2498 30.266 64.1188 30.4831 63.0276C30.7001 61.9365 31.2359 60.9342 32.0225 60.1475C32.8092 59.3609 33.8115 58.8251 34.9026 58.6081C35.9938 58.391 37.1248 58.5024 38.1526 58.9282C39.1804 59.3539 40.0589 60.0749 40.677 60.9999C41.2951 61.9249 41.625 63.0125 41.625 64.125C41.6232 65.6163 41.03 67.046 39.9755 68.1005C38.921 69.155 37.4913 69.7482 36 69.75ZM36 60.75C35.3325 60.75 34.68 60.9479 34.125 61.3188C33.5699 61.6896 33.1374 62.2167 32.8819 62.8334C32.6265 63.4501 32.5596 64.1287 32.6899 64.7834C32.8201 65.4381 33.1415 66.0395 33.6135 66.5115C34.0855 66.9835 34.6869 67.3049 35.3416 67.4352C35.9963 67.5654 36.6749 67.4985 37.2916 67.2431C37.9083 66.9876 38.4354 66.5551 38.8062 66.0001C39.1771 65.445 39.375 64.7925 39.375 64.125C39.375 63.2299 39.0194 62.3715 38.3865 61.7385C37.7536 61.1056 36.8951 60.75 36 60.75Z" fill="currentColor"></path><path d="M36 57.375C35.7016 57.375 35.4155 57.2565 35.2045 57.0455C34.9935 56.8345 34.875 56.5484 34.875 56.25V43.875C34.875 43.5766 34.9935 43.2905 35.2045 43.0795C35.4155 42.8685 35.7016 42.75 36 42.75C36.2984 42.75 36.5845 42.8685 36.7955 43.0795C37.0065 43.2905 37.125 43.5766 37.125 43.875V56.25C37.125 56.5484 37.0065 56.8345 36.7955 57.0455C36.5845 57.2565 36.2984 57.375 36 57.375Z" fill="currentColor"></path><path d="M55.8879 61.5127C54.5865 61.513 53.3253 61.062 52.3192 60.2366C51.313 59.4112 50.6242 58.2625 50.37 56.9862C50.1159 55.7098 50.3122 54.3849 50.9254 53.237C51.5387 52.0892 52.531 51.1895 53.7332 50.6913C54.9354 50.193 56.2732 50.1271 57.5186 50.5046C58.7641 50.8822 59.84 51.6799 60.5632 52.7618C61.2864 53.8438 61.6121 55.143 61.4847 56.4382C61.3574 57.7333 60.7849 58.9442 59.8648 59.8646C59.344 60.3888 58.7243 60.8044 58.0416 61.0873C57.3589 61.3702 56.6269 61.5148 55.8879 61.5127ZM55.8879 52.5127C55.2203 52.5126 54.5676 52.7106 54.0125 53.0815C53.4574 53.4524 53.0247 53.9796 52.7693 54.5965C52.5139 55.2133 52.4471 55.892 52.5775 56.5468C52.7079 57.2016 53.0296 57.803 53.5018 58.2749C54.1444 58.889 54.9991 59.2317 55.8879 59.2317C56.7768 59.2317 57.6314 58.889 58.2741 58.2749C58.7459 57.8029 59.0672 57.2016 59.1974 56.5471C59.3276 55.8925 59.2607 55.214 59.0053 54.5974C58.75 53.9808 58.3175 53.4537 57.7626 53.0828C57.2077 52.712 56.5553 52.5128 55.8879 52.5127Z" fill="currentColor"></path><path d="M50.3189 51.4439C50.0206 51.4439 49.7345 51.3253 49.5236 51.1143L40.7733 42.3641C40.5684 42.1519 40.455 41.8677 40.4576 41.5727C40.4601 41.2778 40.5784 40.9956 40.787 40.787C40.9956 40.5784 41.2778 40.4601 41.5727 40.4576C41.8677 40.455 42.1519 40.5684 42.3641 40.7733L51.1143 49.5236C51.2716 49.6809 51.3787 49.8813 51.4221 50.0995C51.4655 50.3177 51.4432 50.5439 51.3581 50.7494C51.273 50.955 51.1288 51.1307 50.9438 51.2543C50.7589 51.3779 50.5414 51.4439 50.3189 51.4439Z" fill="currentColor"></path></svg>