<svg xmlns="http://www.w3.org/2000/svg" width="72" height="72" viewBox="0 0 72 72" fill="none"><path d="M36 29.25C34.9436 29.25 10.125 29.1859 10.125 23.625C10.125 19.8866 21.3592 18.6424 28.0564 18.2351C28.3537 18.2196 28.6453 18.3213 28.8684 18.5184C29.0916 18.7155 29.2286 18.9923 29.25 19.2892C29.2682 19.587 29.1673 19.8798 28.9696 20.1032C28.772 20.3266 28.4936 20.4624 28.1959 20.4806C17.5084 21.132 13.068 22.8206 12.4189 23.6306C13.3852 24.8884 21.7564 27.0056 36.0022 27.0056C50.2481 27.0056 58.6147 24.8895 59.5856 23.6306C58.9365 22.8251 54.4939 21.1365 43.8086 20.4806C43.5103 20.4624 43.2313 20.3264 43.0332 20.1026C42.8351 19.8787 42.734 19.5854 42.7523 19.287C42.7705 18.9886 42.9064 18.7097 43.1303 18.5116C43.3541 18.3135 43.6475 18.2124 43.9459 18.2306C50.6408 18.6424 61.875 19.8866 61.875 23.625C61.875 29.1859 37.0564 29.25 36 29.25Z" fill="currentColor"></path><path d="M31.5 69.75C31.2016 69.75 30.9155 69.6315 30.7045 69.4205C30.4935 69.2095 30.375 68.9234 30.375 68.625V54.5625C21.7823 50.0119 15.9199 46.8405 12.9454 45.1316C12.0892 44.6377 11.3779 43.9273 10.8829 43.0717C10.3878 42.2162 10.1265 41.2455 10.125 40.257V23.625C10.125 23.3266 10.2435 23.0405 10.4545 22.8295C10.6655 22.6185 10.9516 22.5 11.25 22.5C11.5484 22.5 11.8345 22.6185 12.0455 22.8295C12.2565 23.0405 12.375 23.3266 12.375 23.625V40.257C12.3752 40.8497 12.5312 41.4319 12.8274 41.9453C13.1236 42.4587 13.5495 42.8852 14.0625 43.182C17.0831 44.9167 23.1278 48.1837 32.0231 52.893C32.2045 52.9883 32.3564 53.1312 32.4625 53.3065C32.5685 53.4817 32.6247 53.6826 32.625 53.8875V66.6L39.375 62.3813V53.7975C39.375 53.5954 39.4294 53.397 39.5325 53.2232C39.6357 53.0494 39.7837 52.9066 39.9611 52.8098L57.8677 43.0414C58.3996 42.7509 58.8435 42.3225 59.1527 41.8013C59.4619 41.2801 59.625 40.6853 59.625 40.0793V23.625C59.625 23.3266 59.7435 23.0405 59.9545 22.8295C60.1655 22.6185 60.4516 22.5 60.75 22.5C61.0484 22.5 61.3345 22.6185 61.5455 22.8295C61.7565 23.0405 61.875 23.3266 61.875 23.625V40.0793C61.8755 41.089 61.6042 42.0804 61.0896 42.9492C60.5749 43.8179 59.8359 44.5322 58.95 45.0169L41.625 54.4658V63C41.625 63.1908 41.5765 63.3785 41.484 63.5454C41.3915 63.7122 41.2581 63.8529 41.0962 63.954L32.0963 69.579C31.9175 69.6907 31.7108 69.75 31.5 69.75Z" fill="currentColor"></path><path d="M36 24.75C34.8875 24.75 33.7999 24.4201 32.8749 23.802C31.9499 23.1839 31.2289 22.3054 30.8032 21.2776C30.3774 20.2498 30.266 19.1188 30.4831 18.0276C30.7001 16.9365 31.2359 15.9342 32.0225 15.1475C32.8092 14.3609 33.8115 13.8251 34.9026 13.6081C35.9938 13.391 37.1248 13.5024 38.1526 13.9282C39.1804 14.3539 40.0589 15.0749 40.677 15.9999C41.2951 16.9249 41.625 18.0125 41.625 19.125C41.6232 20.6163 41.03 22.046 39.9755 23.1005C38.921 24.155 37.4913 24.7482 36 24.75ZM36 15.75C35.3325 15.75 34.68 15.9479 34.125 16.3188C33.5699 16.6896 33.1374 17.2167 32.8819 17.8334C32.6265 18.4501 32.5596 19.1287 32.6899 19.7834C32.8201 20.4381 33.1415 21.0395 33.6135 21.5115C34.0855 21.9835 34.6869 22.3049 35.3416 22.4352C35.9963 22.5654 36.6749 22.4985 37.2916 22.2431C37.9083 21.9877 38.4354 21.5551 38.8062 21.0001C39.1771 20.445 39.375 19.7925 39.375 19.125C39.375 18.2299 39.0194 17.3715 38.3865 16.7385C37.7536 16.1056 36.8951 15.75 36 15.75Z" fill="currentColor"></path><path d="M19.125 16.875C18.0125 16.875 16.9249 16.5451 15.9999 15.927C15.0749 15.3089 14.3539 14.4304 13.9282 13.4026C13.5024 12.3748 13.391 11.2438 13.6081 10.1526C13.8251 9.06148 14.3609 8.0592 15.1475 7.27253C15.9342 6.48586 16.9365 5.95013 18.0276 5.73309C19.1188 5.51604 20.2498 5.62744 21.2776 6.05318C22.3054 6.47892 23.1839 7.19989 23.802 8.12492C24.4201 9.04995 24.75 10.1375 24.75 11.25C24.7482 12.7413 24.155 14.171 23.1005 15.2255C22.046 16.28 20.6163 16.8732 19.125 16.875ZM19.125 7.875C18.4575 7.875 17.805 8.07294 17.25 8.44379C16.6949 8.81464 16.2624 9.34175 16.0069 9.95845C15.7515 10.5751 15.6846 11.2537 15.8149 11.9084C15.9451 12.5631 16.2665 13.1645 16.7385 13.6365C17.2105 14.1085 17.8119 14.4299 18.4666 14.5602C19.1213 14.6904 19.7999 14.6235 20.4166 14.3681C21.0333 14.1127 21.5604 13.6801 21.9312 13.1251C22.3021 12.57 22.5 11.9175 22.5 11.25C22.5 10.3549 22.1444 9.49645 21.5115 8.86352C20.8786 8.23058 20.0201 7.875 19.125 7.875Z" fill="currentColor"></path><path d="M50.625 13.5C49.5125 13.5 48.4249 13.1701 47.4999 12.552C46.5749 11.9339 45.8539 11.0554 45.4282 10.0276C45.0024 8.99976 44.891 7.86876 45.1081 6.77762C45.3251 5.68648 45.8609 4.6842 46.6475 3.89753C47.4342 3.11086 48.4365 2.57513 49.5276 2.35809C50.6188 2.14104 51.7498 2.25244 52.7776 2.67818C53.8054 3.10392 54.6839 3.82489 55.302 4.74992C55.9201 5.67495 56.25 6.76248 56.25 7.875C56.2482 9.3663 55.655 10.796 54.6005 11.8505C53.546 12.905 52.1163 13.4982 50.625 13.5ZM50.625 4.5C49.9575 4.5 49.305 4.69794 48.75 5.06879C48.1949 5.43964 47.7624 5.96675 47.5069 6.58345C47.2515 7.20015 47.1846 7.87875 47.3149 8.53343C47.4451 9.18812 47.7665 9.78949 48.2385 10.2615C48.7105 10.7335 49.3119 11.0549 49.9666 11.1852C50.6213 11.3154 51.2999 11.2485 51.9166 10.9931C52.5333 10.7377 53.0604 10.3051 53.4312 9.75005C53.8021 9.19504 54 8.54252 54 7.875C54 6.9799 53.6444 6.12145 53.0115 5.48852C52.3786 4.85558 51.5201 4.5 50.625 4.5Z" fill="currentColor"></path></svg>