<svg xmlns="http://www.w3.org/2000/svg" width="33.314" height="31.733" viewBox="0 0 33.314 31.733"><g transform="translate(-41.186 -34.71)"><path d="M201.108,350.22l.757-.153a.935.935,0,0,0,0-1.833l-.757-.153a4.843,4.843,0,0,1-3.784-3.784l-.153-.757a.935.935,0,0,0-1.833,0l-.153.757a4.843,4.843,0,0,1-3.784,3.784l-.757.153a.935.935,0,0,0,0,1.833l.757.153A4.843,4.843,0,0,1,195.184,354l.153.757a.935.935,0,0,0,1.833,0l.153-.757A4.843,4.843,0,0,1,201.108,350.22Z" transform="translate(-148.708 -289.067)" fill="#fff"></path><path d="M344.6,167.814l2.783-.564a1.23,1.23,0,0,0,0-2.41l-2.783-.564a6.964,6.964,0,0,1-5.441-5.441l-.564-2.783a1.23,1.23,0,0,0-2.41,0l-.564,2.783a6.963,6.963,0,0,1-5.441,5.441l-2.783.564a1.23,1.23,0,0,0,0,2.41l2.783.564a6.964,6.964,0,0,1,5.441,5.441l.564,2.783a1.23,1.23,0,0,0,2.41,0l.564-2.783A6.964,6.964,0,0,1,344.6,167.814Z" transform="translate(-273.869 -120.357)" fill="#fff"></path></g></svg>