<svg xmlns="http://www.w3.org/2000/svg" width="102" height="20" viewBox="0 0 102 20" fill="none"><path d="M0.264 19L6.432 1.12H10.656L16.824 19H13.272L12 15.16H5.088L3.792 19H0.264ZM6.024 12.28H11.064L8.088 3.376H9L6.024 12.28ZM18.8139 19V1.12H22.0779V19H18.8139Z" fill="#ABECD6"></path><path d="M29.7827 19V1.12H35.6147C37.5027 1.12 39.1427 1.504 40.5347 2.272C41.9427 3.024 43.0307 4.072 43.7987 5.416C44.5667 6.744 44.9507 8.288 44.9507 10.048C44.9507 11.792 44.5667 13.344 43.7987 14.704C43.0307 16.048 41.9427 17.104 40.5347 17.872C39.1427 18.624 37.5027 19 35.6147 19H29.7827ZM33.0467 16.12H35.6867C36.9027 16.12 37.9507 15.872 38.8307 15.376C39.7267 14.864 40.4227 14.16 40.9187 13.264C41.4147 12.352 41.6627 11.28 41.6627 10.048C41.6627 8.8 41.4147 7.728 40.9187 6.832C40.4227 5.936 39.7267 5.24 38.8307 4.744C37.9507 4.248 36.9027 4 35.6867 4H33.0467V16.12ZM47.5483 19V1.12H59.4283V4H50.8123V8.584H58.9483V11.464H50.8123V16.12H59.4283V19H47.5483ZM61.8218 19V1.12H64.9418L71.6378 10.216H70.1498L76.7018 1.12H79.8218V19H76.5338V4.84L77.8058 5.152L71.0138 14.2H70.6298L64.0058 5.152L65.0858 4.84V19H61.8218ZM92.0516 19.288C90.7396 19.288 89.5156 19.056 88.3796 18.592C87.2436 18.128 86.2516 17.48 85.4036 16.648C84.5556 15.816 83.8916 14.84 83.4116 13.72C82.9476 12.584 82.7156 11.36 82.7156 10.048C82.7156 8.72 82.9476 7.496 83.4116 6.376C83.8756 5.256 84.5316 4.28 85.3796 3.448C86.2276 2.616 87.2196 1.976 88.3556 1.528C89.4916 1.064 90.7236 0.831999 92.0516 0.831999C93.3796 0.831999 94.6116 1.064 95.7476 1.528C96.8836 1.992 97.8756 2.64 98.7236 3.472C99.5716 4.288 100.228 5.256 100.692 6.376C101.172 7.496 101.412 8.72 101.412 10.048C101.412 11.36 101.172 12.584 100.692 13.72C100.212 14.84 99.5476 15.816 98.6996 16.648C97.8516 17.48 96.8596 18.128 95.7236 18.592C94.6036 19.056 93.3796 19.288 92.0516 19.288ZM92.0516 16.312C92.9316 16.312 93.7396 16.16 94.4756 15.856C95.2116 15.536 95.8516 15.096 96.3956 14.536C96.9556 13.976 97.3796 13.312 97.6676 12.544C97.9716 11.776 98.1236 10.944 98.1236 10.048C98.1236 9.152 97.9716 8.328 97.6676 7.576C97.3796 6.808 96.9556 6.144 96.3956 5.584C95.8516 5.008 95.2116 4.568 94.4756 4.264C93.7396 3.96 92.9316 3.808 92.0516 3.808C91.1876 3.808 90.3876 3.96 89.6516 4.264C88.9156 4.568 88.2676 5.008 87.7076 5.584C87.1636 6.144 86.7396 6.808 86.4356 7.576C86.1316 8.328 85.9796 9.152 85.9796 10.048C85.9796 10.944 86.1316 11.776 86.4356 12.544C86.7396 13.312 87.1636 13.976 87.7076 14.536C88.2676 15.096 88.9156 15.536 89.6516 15.856C90.3876 16.16 91.1876 16.312 92.0516 16.312Z" fill="white"></path></svg>