<svg id="Capa_1" enable-background="new 0 0 512 512" height="512" viewBox="0 0 512 512" width="512" xmlns="http://www.w3.org/2000/svg"><g><path d="m500.011 76.177h-317.355c-6.594 0-11.989 5.395-11.989 11.989v116.454h146.918c6.358 0 11.561 5.202 11.561 11.561v99.76h170.865c6.594 0 11.989-5.395 11.989-11.989v-215.786c0-6.594-5.395-11.989-11.989-11.989z" fill="#ff4756"/><g><g><g><path d="m226.312 76.177h-43.657c-6.594 0-11.989 5.395-11.989 11.989v116.454h43.657v-116.454c.001-6.594 5.395-11.989 11.989-11.989z" fill="#fc2d39"/></g></g></g><g><path d="m378.701 193.999-17.138 15.316c-9.113 8.144-21.913 9.84-32.568 5.1.09.577.15 1.164.15 1.766v99.76h170.865c3.399 0 6.471-1.44 8.658-3.731z" fill="#ff656f"/></g><path d="m500.011 76.177h-317.356c-3.398 0-6.471 1.44-8.657 3.731l139.547 124.712h4.04c6.358 0 11.561 5.202 11.561 11.561v.363c10.625 4.657 23.347 2.937 32.417-5.169l147.106-131.467c-2.187-2.291-5.259-3.731-8.658-3.731z" fill="#ff7f87"/><g><g><path d="m214.324 88.166c0-6.594 5.395-11.989 11.989-11.989h-43.657c-3.398 0-6.471 1.44-8.657 3.731l40.326 36.039v-27.781z" fill="#ff4756"/></g></g><g><path d="m137.065 168.61h-105.29c-4.267 0-7.726-3.459-7.726-7.726s3.459-7.726 7.726-7.726h105.29c4.267 0 7.726 3.459 7.726 7.726s-3.459 7.726-7.726 7.726z" fill="#ff656f"/></g><g><path d="m137.065 133.231h-79.705c-4.267 0-7.726-3.459-7.726-7.726s3.459-7.726 7.726-7.726h79.705c4.267 0 7.726 3.459 7.726 7.726s-3.459 7.726-7.726 7.726z" fill="#ff656f"/></g><g><path d="m137.065 97.851h-48.77c-4.267 0-7.726-3.459-7.726-7.726s3.459-7.726 7.726-7.726h48.77c4.267 0 7.726 3.459 7.726 7.726s-3.459 7.726-7.726 7.726z" fill="#ff656f"/></g><g><path d="m480.225 429.601h-105.29c-4.267 0-7.726-3.459-7.726-7.726s3.459-7.726 7.726-7.726h105.29c4.267 0 7.726 3.459 7.726 7.726s-3.458 7.726-7.726 7.726z" fill="#60b8fe"/></g><g><path d="m454.64 394.222h-79.705c-4.267 0-7.726-3.459-7.726-7.726s3.459-7.726 7.726-7.726h79.705c4.267 0 7.726 3.459 7.726 7.726s-3.459 7.726-7.726 7.726z" fill="#60b8fe"/></g><g><path d="m423.706 358.842h-48.77c-4.267 0-7.726-3.459-7.726-7.726s3.459-7.726 7.726-7.726h48.77c4.267 0 7.726 3.459 7.726 7.726s-3.459 7.726-7.726 7.726z" fill="#60b8fe"/></g><path d="m329.344 196.059h-317.355c-6.594 0-11.989 5.395-11.989 11.989v215.787c0 6.594 5.395 11.989 11.989 11.989h317.356c6.594 0 11.989-5.395 11.989-11.989v-215.787c-.001-6.594-5.396-11.989-11.99-11.989z" fill="#23a8fe"/><path d="m43.657 423.834v-215.786c0-6.594 5.395-11.989 11.989-11.989h-43.657c-6.594 0-11.989 5.395-11.989 11.989v215.787c0 6.594 5.395 11.989 11.989 11.989h43.657c-6.594-.001-11.989-5.396-11.989-11.99z" fill="#0193fa"/><path d="m190.896 329.197c-11.521 10.296-28.938 10.296-40.459 0l-17.138-15.316-129.968 118.211c2.187 2.291 5.259 3.731 8.657 3.731h317.356c3.399 0 6.471-1.44 8.658-3.731l-129.968-118.211z" fill="#60b8fe"/><path d="m43.657 423.834v-28.42l-40.326 36.678c2.187 2.291 5.259 3.731 8.658 3.731h43.657c-6.594 0-11.989-5.395-11.989-11.989z" fill="#23a8fe"/><path d="m329.344 196.059h-317.355c-3.398 0-6.471 1.44-8.657 3.731l147.106 131.467c11.521 10.296 28.938 10.296 40.459 0l147.105-131.467c-2.187-2.291-5.259-3.731-8.658-3.731z" fill="#8bcaff"/><path d="m43.657 208.048c0-6.594 5.395-11.989 11.989-11.989h-43.657c-3.398 0-6.471 1.44-8.658 3.731l40.326 36.039z" fill="#60b8fe"/></g></svg>