<svg id="Layer_1" enable-background="new 0 0 512 512" height="512" viewBox="0 0 512 512" width="512" xmlns="http://www.w3.org/2000/svg"><g><g><path d="m152.22 171.255h212.56v333.21h-212.56z" fill="#7cc0d2"/><g><path d="m344.508 504.465h-.14" fill="none"/><path d="m344.51 171.255h20.27v333.21h-20.27z" fill="#63aaba"/></g><path d="m106 325.165v179.3h73.44v-171.8z" fill="#317794"/><path d="m179.44 43.355h158.12v127.9h-158.12z" fill="#317794"/><path d="m317.56 43.355h20v127.9h-20z" fill="#04627e"/><g fill="#ffde8f"><path d="m223.764 70.452c-4.142 0-7.5 3.358-7.5 7.5v58.78c0 4.142 3.358 7.5 7.5 7.5s7.5-3.358 7.5-7.5v-58.78c0-4.142-3.358-7.5-7.5-7.5z"/><path d="m258.228 70.452c-4.143 0-7.5 3.358-7.5 7.5v58.78c0 4.142 3.357 7.5 7.5 7.5s7.5-3.358 7.5-7.5v-58.78c0-4.142-3.358-7.5-7.5-7.5z"/><path d="m293.236 70.452c-4.143 0-7.5 3.358-7.5 7.5v58.78c0 4.142 3.357 7.5 7.5 7.5s7.5-3.358 7.5-7.5v-58.78c0-4.142-3.357-7.5-7.5-7.5z"/></g><g><g fill="#dcf3ff"><path d="m142.243 435.75c4.142 0 7.5-3.358 7.5-7.5v-16.78c0-4.142-3.358-7.5-7.5-7.5s-7.5 3.358-7.5 7.5v16.78c0 4.142 3.358 7.5 7.5 7.5z"/><path d="m142.721 352.49c-4.142 0-7.5 3.358-7.5 7.5v16.78c0 4.142 3.358 7.5 7.5 7.5s7.5-3.358 7.5-7.5v-16.78c0-4.142-3.358-7.5-7.5-7.5z"/><path d="m241.269 403.97c-4.143 0-7.5 3.358-7.5 7.5v16.78c0 4.142 3.357 7.5 7.5 7.5s7.5-3.358 7.5-7.5v-16.78c0-4.142-3.358-7.5-7.5-7.5z"/><path d="m241.269 352.49c-4.143 0-7.5 3.358-7.5 7.5v16.78c0 4.142 3.357 7.5 7.5 7.5s7.5-3.358 7.5-7.5v-16.78c0-4.142-3.358-7.5-7.5-7.5z"/><path d="m275.732 403.97c-4.143 0-7.5 3.358-7.5 7.5v16.78c0 4.142 3.357 7.5 7.5 7.5s7.5-3.358 7.5-7.5v-16.78c0-4.142-3.358-7.5-7.5-7.5z"/><path d="m275.732 352.49c-4.143 0-7.5 3.358-7.5 7.5v16.78c0 4.142 3.357 7.5 7.5 7.5s7.5-3.358 7.5-7.5v-16.78c0-4.142-3.358-7.5-7.5-7.5z"/><path d="m310.74 403.97c-4.143 0-7.5 3.358-7.5 7.5v16.78c0 4.142 3.357 7.5 7.5 7.5s7.5-3.358 7.5-7.5v-16.78c0-4.142-3.357-7.5-7.5-7.5z"/><path d="m310.74 352.49c-4.143 0-7.5 3.358-7.5 7.5v16.78c0 4.142 3.357 7.5 7.5 7.5s7.5-3.358 7.5-7.5v-16.78c0-4.142-3.357-7.5-7.5-7.5z"/><path d="m206.269 404.329c-4.142 0-7.5 3.358-7.5 7.5v16.78c0 4.142 3.358 7.5 7.5 7.5s7.5-3.358 7.5-7.5v-16.78c0-4.142-3.358-7.5-7.5-7.5z"/><path d="m206.269 352.849c-4.142 0-7.5 3.358-7.5 7.5v16.78c0 4.142 3.358 7.5 7.5 7.5s7.5-3.358 7.5-7.5v-16.78c0-4.142-3.358-7.5-7.5-7.5z"/><path d="m241.264 332.612c4.143 0 7.5-3.358 7.5-7.5v-16.78c0-4.142-3.357-7.5-7.5-7.5s-7.5 3.358-7.5 7.5v16.78c0 4.142 3.357 7.5 7.5 7.5z"/><path d="m241.264 281.132c4.143 0 7.5-3.358 7.5-7.5v-16.78c0-4.142-3.357-7.5-7.5-7.5s-7.5 3.358-7.5 7.5v16.78c0 4.142 3.357 7.5 7.5 7.5z"/><path d="m275.728 332.612c4.143 0 7.5-3.358 7.5-7.5v-16.78c0-4.142-3.357-7.5-7.5-7.5s-7.5 3.358-7.5 7.5v16.78c0 4.142 3.357 7.5 7.5 7.5z"/><path d="m275.728 281.132c4.143 0 7.5-3.358 7.5-7.5v-16.78c0-4.142-3.357-7.5-7.5-7.5s-7.5 3.358-7.5 7.5v16.78c0 4.142 3.357 7.5 7.5 7.5z"/><path d="m310.736 332.612c4.143 0 7.5-3.358 7.5-7.5v-16.78c0-4.142-3.357-7.5-7.5-7.5s-7.5 3.358-7.5 7.5v16.78c0 4.142 3.358 7.5 7.5 7.5z"/><path d="m310.736 281.132c4.143 0 7.5-3.358 7.5-7.5v-16.78c0-4.142-3.357-7.5-7.5-7.5s-7.5 3.358-7.5 7.5v16.78c0 4.142 3.358 7.5 7.5 7.5z"/><path d="m206.264 332.97c4.142 0 7.5-3.358 7.5-7.5v-16.78c0-4.142-3.358-7.5-7.5-7.5s-7.5 3.358-7.5 7.5v16.78c0 4.143 3.358 7.5 7.5 7.5z"/><path d="m206.264 281.49c4.142 0 7.5-3.358 7.5-7.5v-16.78c0-4.142-3.358-7.5-7.5-7.5s-7.5 3.358-7.5 7.5v16.78c0 4.143 3.358 7.5 7.5 7.5z"/><path d="m241.264 229.952c4.143 0 7.5-3.358 7.5-7.5v-16.78c0-4.142-3.357-7.5-7.5-7.5s-7.5 3.358-7.5 7.5v16.78c0 4.142 3.357 7.5 7.5 7.5z"/><path d="m275.728 229.952c4.143 0 7.5-3.358 7.5-7.5v-16.78c0-4.142-3.357-7.5-7.5-7.5s-7.5 3.358-7.5 7.5v16.78c0 4.142 3.357 7.5 7.5 7.5z"/><path d="m310.736 229.952c4.143 0 7.5-3.358 7.5-7.5v-16.78c0-4.142-3.357-7.5-7.5-7.5s-7.5 3.358-7.5 7.5v16.78c0 4.142 3.358 7.5 7.5 7.5z"/><path d="m206.264 230.311c4.142 0 7.5-3.358 7.5-7.5v-16.78c0-4.142-3.358-7.5-7.5-7.5s-7.5 3.358-7.5 7.5v16.78c0 4.142 3.358 7.5 7.5 7.5z"/><path d="m372.413 403.97c-4.143 0-7.5 3.358-7.5 7.5v16.78c0 4.142 3.357 7.5 7.5 7.5s7.5-3.358 7.5-7.5v-16.78c0-4.142-3.357-7.5-7.5-7.5z"/><path d="m372.413 352.49c-4.143 0-7.5 3.358-7.5 7.5v16.78c0 4.142 3.357 7.5 7.5 7.5s7.5-3.358 7.5-7.5v-16.78c0-4.142-3.357-7.5-7.5-7.5z"/></g><path d="m149.95 463.235v41.23h-15v-41.23c0-4.14 3.36-7.5 7.5-7.5s7.5 3.36 7.5 7.5z" fill="#ffde8f"/><path d="m379.64 463.235v41.23h-14.86c0 .48-.05.93-.14 1.38v-42.61c0-.49.05-.97.14-1.44.59-3.03 3-5.41 6.05-5.94.43-.08.87-.12 1.31-.12 4.15 0 7.5 3.36 7.5 7.5z" fill="#ffde8f"/><path d="m283.23 463.515v40.95h-15v-40.95c0-4.14 3.36-7.5 7.5-7.5s7.5 3.36 7.5 7.5z" fill="#ffde8f"/><path d="m248.77 463.515v40.95h-15v-40.95c0-4.14 3.36-7.5 7.5-7.5s7.5 3.36 7.5 7.5z" fill="#ffde8f"/></g><path d="m216.26 7.535h84.48v35.82h-84.48z" fill="#7cc0d2"/><path d="m280.78 7.535h19.96v35.82h-19.96z" fill="#63aaba"/><g fill="#dcf3ff"><path d="m176.944 50.856h163.112c4.143 0 7.5-3.358 7.5-7.5s-3.357-7.5-7.5-7.5h-163.112c-4.142 0-7.5 3.358-7.5 7.5s3.358 7.5 7.5 7.5z"/><path d="m149.721 178.753h217.557c4.143 0 7.5-3.358 7.5-7.5s-3.357-7.5-7.5-7.5h-217.557c-4.142 0-7.5 3.358-7.5 7.5s3.358 7.5 7.5 7.5z"/><path d="m213.764 15.035h89.472c4.143 0 7.5-3.358 7.5-7.5s-3.357-7.5-7.5-7.5h-89.472c-4.142 0-7.5 3.358-7.5 7.5s3.358 7.5 7.5 7.5z"/></g><path d="m171.944 317.661h-68.445c-4.142 0-7.5 3.358-7.5 7.5s3.358 7.5 7.5 7.5h75.945v-7.5c0-4.142-3.358-7.5-7.5-7.5z" fill="#dcf3ff"/><path d="m406 325.165v179.3h-73.44v-171.8l53.44-5.46z" fill="#317794"/><path d="m406 325.165v179.3h-20v-177.26z" fill="#04627e"/><path d="m369.757 435.75c-4.142 0-7.5-3.358-7.5-7.5v-16.78c0-4.142 3.358-7.5 7.5-7.5s7.5 3.358 7.5 7.5v16.78c0 4.142-3.358 7.5-7.5 7.5z" fill="#dcf3ff"/><path d="m369.279 352.49c4.142 0 7.5 3.358 7.5 7.5v16.78c0 4.142-3.358 7.5-7.5 7.5s-7.5-3.358-7.5-7.5v-16.78c0-4.142 3.358-7.5 7.5-7.5z" fill="#dcf3ff"/><path d="m370.83 455.855c-.41-.08-.84-.12-1.28-.12-1.81 0-3.48.64-4.77 1.71-1.67 1.38-2.73 3.46-2.73 5.79v41.23h15v-41.23c0-3.7-2.69-6.78-6.22-7.38z" fill="#ffde8f"/><path d="m340.056 317.661h68.445c4.142 0 7.5 3.358 7.5 7.5s-3.358 7.5-7.5 7.5h-75.945v-7.5c0-4.142 3.358-7.5 7.5-7.5z" fill="#dcf3ff"/></g><g><g fill="#b56c3a"><path d="m34.109 464.496h15v39.692h-15z"/><path d="m462.892 464.496h15v39.692h-15z"/></g><g><path d="m83.22 449.725c0 15.3-12.45 27.75-27.76 27.75-3.61 0-7.13-.69-10.4-2.01-1.18-.48-2.34-1.05-3.45-1.69-4.18 2.41-8.93 3.7-13.85 3.7-15.31 0-27.76-12.45-27.76-27.75 0-9.33 4.55-17.72 11.87-22.79-1.75-4.75-2.65-9.89-2.65-15.2 0-17.09 9.59-31.6 22.77-36.44h.01c3.04-1.12 6.27-1.72 9.62-1.72 17.86 0 32.4 17.12 32.4 38.16 0 5.31-.91 10.46-2.66 15.22 7.32 5.07 11.86 13.45 11.86 22.77z" fill="#00dfb6"/><path d="m83.22 449.725c0 15.3-12.45 27.75-27.76 27.75-3.61 0-7.13-.69-10.4-2.01 10.59-3.91 18.16-14.1 18.16-26.03 0-9.32-4.54-17.7-11.86-22.78 1.75-4.75 2.66-9.9 2.66-15.21 0-16.77-9.23-31.05-22.02-36.15 3.04-1.12 6.27-1.72 9.62-1.72 17.86 0 32.4 17.12 32.4 38.16 0 5.31-.91 10.46-2.66 15.22 7.32 5.07 11.86 13.45 11.86 22.77z" fill="#00c69a"/><path d="m512 449.725c0 15.3-12.45 27.75-27.76 27.75-2.92 0-5.78-.45-8.5-1.34-1.86-.59-3.65-1.38-5.35-2.36-4.18 2.41-8.93 3.7-13.85 3.7-15.31 0-27.76-12.45-27.76-27.75 0-9.33 4.55-17.71 11.88-22.79-1.75-4.75-2.66-9.89-2.66-15.2 0-17.58 10.15-32.42 23.9-36.83 2.71-.87 5.56-1.33 8.5-1.33 17.87 0 32.4 17.12 32.4 38.16 0 5.31-.91 10.46-2.66 15.22 7.32 5.07 11.86 13.45 11.86 22.77z" fill="#00dfb6"/><path d="m512 449.725c0 15.3-12.45 27.75-27.76 27.75-2.92 0-5.78-.45-8.5-1.34 11.16-3.59 19.26-14.07 19.26-26.41 0-9.32-4.54-17.7-11.86-22.77 1.75-4.76 2.66-9.91 2.66-15.22 0-17.58-10.14-32.42-23.9-36.83 2.71-.87 5.56-1.33 8.5-1.33 17.87 0 32.4 17.12 32.4 38.16 0 5.31-.91 10.46-2.66 15.22 7.32 5.07 11.86 13.45 11.86 22.77z" fill="#00c69a"/></g><g><path d="m512 85.735c0 9.79-5.39 18.34-13.37 22.83-3.8 2.15-8.18 3.38-12.85 3.38h-89.86c-14.46 0-26.22-11.76-26.22-26.21 0-14.46 11.76-26.22 26.22-26.22 3.53 0 7.03.72 10.25 2.09.9-2.14 2-4.17 3.26-6.06 6.61-9.9 17.81-16.09 30.16-16.09 15.01 0 28.48 9.37 33.83 23.15 3.78-2.03 8-3.09 12.36-3.09 14.46 0 26.22 11.76 26.22 26.22z" fill="#dcf3ff"/><path d="m512 85.735c0 9.79-5.39 18.34-13.37 22.83 2.15-3.79 3.37-8.17 3.37-12.83 0-14.46-11.76-26.22-26.22-26.22-4.36 0-8.58 1.06-12.36 3.09-5.35-13.78-18.82-23.15-33.83-23.15-7.35 0-14.3 2.19-20.11 6.06-.02.01-.03.02-.05.03 6.61-9.9 17.81-16.09 30.16-16.09 15.01 0 28.48 9.37 33.83 23.15 3.78-2.03 8-3.09 12.36-3.09 14.46 0 26.22 11.76 26.22 26.22z" fill="#aedff4"/></g><path d="m504.5 496.965h-497c-4.142 0-7.5 3.358-7.5 7.5s3.358 7.5 7.5 7.5h497c4.143 0 7.5-3.358 7.5-7.5s-3.357-7.5-7.5-7.5z" fill="#00dfb6"/><path d="m135.872 136.788c0 9.348-5.147 17.512-12.766 21.799-3.628 2.053-7.811 3.227-12.27 3.227h-85.8c-13.807 0-25.036-11.228-25.036-25.026 0-13.807 11.229-25.036 25.036-25.036 3.371 0 6.712.687 9.787 1.996.859-2.043 1.91-3.982 3.113-5.786 6.312-9.453 17.006-15.363 28.798-15.363 14.332 0 27.194 8.947 32.302 22.104 3.609-1.938 7.639-2.95 11.802-2.95 13.806 0 25.034 11.228 25.034 25.035z" fill="#dcf3ff"/><path d="m135.872 136.788c0 9.348-5.147 17.512-12.766 21.799 2.053-3.619 3.218-7.801 3.218-12.25 0-13.807-11.229-25.036-25.036-25.036-4.163 0-8.193 1.012-11.802 2.95-5.108-13.158-17.97-22.104-32.302-22.104-7.018 0-13.654 2.091-19.202 5.786-.019.01-.029.019-.048.029 6.312-9.453 17.006-15.363 28.798-15.363 14.332 0 27.194 8.947 32.302 22.104 3.609-1.938 7.639-2.95 11.802-2.95 13.808 0 25.036 11.228 25.036 25.035z" fill="#aedff4"/></g></g></svg>