<?xml version="1.0" encoding="utf-8"?>
<!-- Generator: Adobe Illustrator 25.2.0, SVG Export Plug-In . SVG Version: 6.00 Build 0)  -->
<svg version="1.1" id="Layer_1" xmlns="http://www.w3.org/2000/svg" xmlns:xlink="http://www.w3.org/1999/xlink" x="0px" y="0px"
	 viewBox="0 0 512 512" style="enable-background:new 0 0 512 512;" xml:space="preserve">
<style type="text/css">
	.st0{fill:#B2DD00;}
	.st1{fill:#D7E816;}
	.st2{fill:#D7DEED;}
	.st3{fill:#3256C1;}
	.st4{fill:#163EB1;}
	.st5{fill:#07CC66;}
	.st6{fill:#FF5722;}
	.st7{fill:#AC5BF4;}
	.st8{fill:#FFFFFF;}
</style>
<g id="_x31_69_x2C__Chat_x2C__Line_x2C__Talk_x2C__Telephone">
	<g>
		<g>
			<path class="st0" d="M379.3,242.9h-80c-2.7,0-4.9-2.2-4.9-4.9s2.2-4.9,4.9-4.9h80c2.7,0,4.9,2.2,4.9,4.9S382.1,242.9,379.3,242.9
				z"/>
			<path class="st1" d="M447,175.2c0,22.1-10.6,41.7-27,54.1l2.8,23.3l-25.8-12c-5.7,1.5-11.6,2.4-17.7,2.4
				c-37.4,0-67.7-30.3-67.7-67.7c0-2,0.1-4.1,0.3-6.1c24.7-8.5,43-30.9,45.4-57.9c6.9-2.4,14.3-3.7,22-3.7
				C416.7,107.5,447,137.8,447,175.2L447,175.2z"/>
			<path class="st2" d="M395.2,473.6h-166c-12.2,0-22.2-9.9-22.2-22.2c0-5.9,2.3-11.5,6.5-15.7s9.8-6.5,15.7-6.5H276
				c2.7,0,4.9,2.2,4.9,4.9c0,2.7-2.2,4.9-4.9,4.9h-46.8c-3.3,0-6.4,1.3-8.7,3.6c-2.3,2.3-3.6,5.4-3.6,8.7c0,6.8,5.5,12.3,12.3,12.3
				h166c3.7,0,7.4-0.7,10.8-2.1s6.5-3.5,9.2-6.1c5.3-5.3,8.3-12.4,8.3-20c0-7.5-2.9-14.6-8.3-20L391.6,392c-1.9-1.9-1.9-5,0-7
				c1.9-1.9,5-1.9,7,0l23.5,23.5c7.2,7.2,11.2,16.7,11.2,26.9s-4,19.7-11.2,26.9c-3.5,3.5-7.7,6.3-12.3,8.3
				C405.1,472.6,400.2,473.6,395.2,473.6L395.2,473.6z"/>
			<path class="st3" d="M398.6,295.5c-13.4-13.5-31.1-20.2-48.7-20.2s-35.3,6.7-48.7,20.2l-3.5,3.5L175.8,177.1l3.5-3.5
				c26.9-26.9,26.9-70.6,0-97.5C165.8,62.7,148.1,56,130.5,56s-35.3,6.7-48.7,20.2l-3.5,3.5c-34.6,34.6-34.6,90.7,0,125.3
				l191.5,191.5c17.3,17.3,40,26,62.7,26s45.4-8.6,62.7-26l3.5-3.5C425.5,366.1,425.5,322.4,398.6,295.5L398.6,295.5z"/>
			<path class="st4" d="M398.6,295.5c26.9,26.9,26.9,70.6,0,97.5l-3.5,3.5L297.6,299l3.5-3.5c13.5-13.5,31.1-20.2,48.7-20.2
				C367.5,275.3,385.1,282,398.6,295.5L398.6,295.5z"/>
			<path class="st4" d="M179.2,76.2c26.9,26.9,26.9,70.6,0,97.5l-3.5,3.5L78.3,79.7l3.5-3.5C95.2,62.7,112.9,56,130.5,56
				S165.8,62.7,179.2,76.2z"/>
			<path class="st3" d="M78.3,205c-34.6-34.6-34.6-90.7,0-125.3l97.5,97.5L297.6,299l97.5,97.5c-17.3,17.3-40,26-62.7,26
				s-45.4-8.6-62.7-26L78.3,205z"/>
			<path class="st5" d="M312.9,170.1c-6.9,2.4-14.3,3.7-22,3.7c-6.1,0-12.1-0.8-17.7-2.4l-25.8,12l2.8-23.3
				c-16.4-12.3-27-32-27-54.1c0-37.4,30.3-67.7,67.7-67.7s67.7,30.3,67.7,67.7c0,2-0.1,4.1-0.3,6.1
				C355.9,139.2,337.6,161.6,312.9,170.1L312.9,170.1z"/>
			<g>
				<path class="st6" d="M405.2,67.6c4.1,0,7.4,3.3,7.4,7.4s-3.3,7.4-7.4,7.4s-7.4-3.3-7.4-7.4C397.8,70.9,401.2,67.6,405.2,67.6z"
					/>
				<path class="st7" d="M126.5,348.2c6.9,0,12.4,5.5,12.4,12.4c0,6.9-5.5,12.4-12.4,12.4c-6.9,0-12.4-5.5-12.4-12.4
					C114.1,353.7,119.8,348.2,126.5,348.2z"/>
			</g>
			<path class="st4" d="M300.3,353.5c-1.3,0-2.5-0.5-3.5-1.4L95,150.2c-1.9-1.9-1.9-5,0-7c1.9-1.9,5-1.9,7,0L303.8,345
				c1.9,1.9,1.9,5,0,7C302.8,353,301.6,353.5,300.3,353.5z"/>
			<path class="st8" d="M310.2,87.6h-59.1c-2.7,0-4.9-2.2-4.9-4.9c0-2.7,2.2-4.9,4.9-4.9h59.1c2.7,0,4.9,2.2,4.9,4.9
				S312.9,87.6,310.2,87.6z"/>
			<path class="st8" d="M329.8,107.3H251c-2.7,0-4.9-2.2-4.9-4.9c0-2.7,2.2-4.9,4.9-4.9h78.8c2.7,0,4.9,2.2,4.9,4.9
				C334.8,105.1,332.6,107.3,329.8,107.3z"/>
			<path class="st8" d="M329.8,127H251c-2.7,0-4.9-2.2-4.9-4.9s2.2-4.9,4.9-4.9h78.8c2.7,0,4.9,2.2,4.9,4.9S332.6,127,329.8,127z"/>
		</g>
		<g>
			<path class="st0" d="M379.3,242.9h-80c-2.7,0-4.9-2.2-4.9-4.9s2.2-4.9,4.9-4.9h80c2.7,0,4.9,2.2,4.9,4.9S382.1,242.9,379.3,242.9
				z"/>
			<path class="st1" d="M447,175.2c0,22.1-10.6,41.7-27,54.1l2.8,23.3l-25.8-12c-5.7,1.5-11.6,2.4-17.7,2.4
				c-37.4,0-67.7-30.3-67.7-67.7c0-2,0.1-4.1,0.3-6.1c24.7-8.5,43-30.9,45.4-57.9c6.9-2.4,14.3-3.7,22-3.7
				C416.7,107.5,447,137.8,447,175.2L447,175.2z"/>
			<path class="st2" d="M395.2,473.6h-166c-12.2,0-22.2-9.9-22.2-22.2c0-5.9,2.3-11.5,6.5-15.7s9.8-6.5,15.7-6.5H276
				c2.7,0,4.9,2.2,4.9,4.9c0,2.7-2.2,4.9-4.9,4.9h-46.8c-3.3,0-6.4,1.3-8.7,3.6c-2.3,2.3-3.6,5.4-3.6,8.7c0,6.8,5.5,12.3,12.3,12.3
				h166c3.7,0,7.4-0.7,10.8-2.1s6.5-3.5,9.2-6.1c5.3-5.3,8.3-12.4,8.3-20c0-7.5-2.9-14.6-8.3-20L391.6,392c-1.9-1.9-1.9-5,0-7
				c1.9-1.9,5-1.9,7,0l23.5,23.5c7.2,7.2,11.2,16.7,11.2,26.9s-4,19.7-11.2,26.9c-3.5,3.5-7.7,6.3-12.3,8.3
				C405.1,472.6,400.2,473.6,395.2,473.6L395.2,473.6z"/>
			<path class="st3" d="M398.6,295.5c-13.4-13.5-31.1-20.2-48.7-20.2s-35.3,6.7-48.7,20.2l-3.5,3.5L175.8,177.1l3.5-3.5
				c26.9-26.9,26.9-70.6,0-97.5C165.8,62.7,148.1,56,130.5,56s-35.3,6.7-48.7,20.2l-3.5,3.5c-34.6,34.6-34.6,90.7,0,125.3
				l191.5,191.5c17.3,17.3,40,26,62.7,26s45.4-8.6,62.7-26l3.5-3.5C425.5,366.1,425.5,322.4,398.6,295.5L398.6,295.5z"/>
			<path class="st4" d="M398.6,295.5c26.9,26.9,26.9,70.6,0,97.5l-3.5,3.5L297.6,299l3.5-3.5c13.5-13.5,31.1-20.2,48.7-20.2
				C367.5,275.3,385.1,282,398.6,295.5L398.6,295.5z"/>
			<path class="st4" d="M179.2,76.2c26.9,26.9,26.9,70.6,0,97.5l-3.5,3.5L78.3,79.7l3.5-3.5C95.2,62.7,112.9,56,130.5,56
				S165.8,62.7,179.2,76.2z"/>
			<path class="st3" d="M78.3,205c-34.6-34.6-34.6-90.7,0-125.3l97.5,97.5L297.6,299l97.5,97.5c-17.3,17.3-40,26-62.7,26
				s-45.4-8.6-62.7-26L78.3,205z"/>
			<path class="st5" d="M312.9,170.1c-6.9,2.4-14.3,3.7-22,3.7c-6.1,0-12.1-0.8-17.7-2.4l-25.8,12l2.8-23.3
				c-16.4-12.3-27-32-27-54.1c0-37.4,30.3-67.7,67.7-67.7s67.7,30.3,67.7,67.7c0,2-0.1,4.1-0.3,6.1
				C355.9,139.2,337.6,161.6,312.9,170.1L312.9,170.1z"/>
			<g>
				<path class="st6" d="M405.2,67.6c4.1,0,7.4,3.3,7.4,7.4s-3.3,7.4-7.4,7.4s-7.4-3.3-7.4-7.4C397.8,70.9,401.2,67.6,405.2,67.6z"
					/>
				<path class="st7" d="M126.5,348.2c6.9,0,12.4,5.5,12.4,12.4c0,6.9-5.5,12.4-12.4,12.4c-6.9,0-12.4-5.5-12.4-12.4
					C114.1,353.7,119.8,348.2,126.5,348.2z"/>
			</g>
			<path class="st4" d="M300.3,353.5c-1.3,0-2.5-0.5-3.5-1.4L95,150.2c-1.9-1.9-1.9-5,0-7c1.9-1.9,5-1.9,7,0L303.8,345
				c1.9,1.9,1.9,5,0,7C302.8,353,301.6,353.5,300.3,353.5z"/>
			<path class="st8" d="M310.2,87.6h-59.1c-2.7,0-4.9-2.2-4.9-4.9c0-2.7,2.2-4.9,4.9-4.9h59.1c2.7,0,4.9,2.2,4.9,4.9
				S312.9,87.6,310.2,87.6z"/>
			<path class="st8" d="M329.8,107.3H251c-2.7,0-4.9-2.2-4.9-4.9c0-2.7,2.2-4.9,4.9-4.9h78.8c2.7,0,4.9,2.2,4.9,4.9
				C334.8,105.1,332.6,107.3,329.8,107.3z"/>
			<path class="st8" d="M329.8,127H251c-2.7,0-4.9-2.2-4.9-4.9s2.2-4.9,4.9-4.9h78.8c2.7,0,4.9,2.2,4.9,4.9S332.6,127,329.8,127z"/>
		</g>
	</g>
</g>
</svg>
